<svg
  xmlns="http://www.w3.org/2000/svg"
  viewBox="0 0 250 80"
  fill="none"
>
  <!-- Background Circle -->
  <circle cx="50" cy="50" r="45" fill="#1E3A8A" stroke="#1D4ED8" stroke-width="4" />

  <!-- Hands Icon - Symbolizing Care -->
  <path
    d="M35 35 C30 20, 50 10, 65 25 L75 40 L65 55 C50 70, 35 60, 35 50 C35 40, 40 35, 45 35Z"
    fill="#fff"
  />
  <path
    d="M75 35 C80 20, 60 10, 55 25 L45 40 L55 55 C60 70, 75 60, 75 50 C75 40, 70 35, 65 35Z"
    fill="#fff"
  />

  <!-- Heart Icon - Symbolizing Compassion -->
  <path
    d="M125 45c-8-6-14-10-14-15 0-4 3-7 7-7 3 0 6 1 8 4 2-3 5-4 8-4 5 0 8 4 8 7 0 5-5 9-13 14z"
    fill="#F59E0B"
  />

  <!-- Text: ZamCare -->
  <text x="110" y="40" font-family="Arial, sans-serif" font-size="30" fill="#F1F5F9" font-weight="bold">
    ZamCare
  </text>

  <!-- Tagline -->
  <text x="110" y="60" font-family="Arial, sans-serif" font-size="12" fill="#9CA3AF">
    Empowering Children, Building Futures
  </text>
</svg>
